<svg xmlns="http://www.w3.org/2000/svg" viewBox="0 0 24 24"><path d="M.502 8.07l10.284 10.284c.67.67 1.755.67 2.423 0L23.494 8.07a1.714 1.714 0 10-2.423-2.423L12 14.718 2.927 5.646A1.714 1.714 0 00.501 8.07z" fill="#444"/></svg>w.w3.org/1999/xlink" x="0px" y="0px"
	 viewBox="0 0 24 24" style="enable-background:new 0 0 24 24;" xml:space="preserve">
<style type="text/css">
	.st0{fill:#444444;}
</style>
<g transform="scale(0.0234375 0.0234375)">
	<path class="st0" d="M21.4,344.3l438.8,438.8c28.6,28.6,74.9,28.6,103.4,0l438.8-438.8c28.6-28.6,28.6-74.9,0-103.4
		s-74.9-28.6-103.4,0L512,628L124.9,240.9c-28.6-28.6-74.9-28.6-103.4,0S-7.2,315.8,21.4,344.3L21.4,344.3z"/>
</g>
</svg>
